<?xml version="1.0" encoding="utf-8"?>
<!DOCTYPE svg PUBLIC "-//W3C//DTD SVG 20010904//EN" "http://www.w3.org/TR/2001/REC-SVG-20010904/DTD/svg10.dtd">
<svg xmlns="http://www.w3.org/2000/svg" xml:space="preserve" xmlns:xlink="http://www.w3.org/1999/xlink" width="784" height="784" viewBox="0 0 784 784">
<desc></desc>
<rect width="784" height="784" fill="#ffffff" cx="0" cy="0" />
<defs>
<rect id="p" width="16" height="16" />
<circle id="circle" r="8" stroke-width="0" fill="000000" />
<rect id="hor" width="16" height="4" />
<rect id="ver" width="4" height="16" />
<polygon id="3d1" points="0,0 16,0 0,16" stroke-width="0" fill="000000" />
<polygon id="3d2" points="0,16 16,0 16,16" stroke-width="0" fill="#808080" />
</defs>
<g fill="#000000">
<use x="32" y="32" xlink:href="#p" />
<use x="48" y="32" xlink:href="#p" />
<use x="64" y="32" xlink:href="#p" />
<use x="80" y="32" xlink:href="#p" />
<use x="96" y="32" xlink:href="#p" />
<use x="112" y="32" xlink:href="#p" />
<use x="128" y="32" xlink:href="#p" />
<use x="160" y="32" xlink:href="#p" />
<use x="176" y="32" xlink:href="#p" />
<use x="240" y="32" xlink:href="#p" />
<use x="272" y="32" xlink:href="#p" />
<use x="320" y="32" xlink:href="#p" />
<use x="336" y="32" xlink:href="#p" />
<use x="352" y="32" xlink:href="#p" />
<use x="384" y="32" xlink:href="#p" />
<use x="432" y="32" xlink:href="#p" />
<use x="464" y="32" xlink:href="#p" />
<use x="480" y="32" xlink:href="#p" />
<use x="496" y="32" xlink:href="#p" />
<use x="512" y="32" xlink:href="#p" />
<use x="560" y="32" xlink:href="#p" />
<use x="608" y="32" xlink:href="#p" />
<use x="640" y="32" xlink:href="#p" />
<use x="656" y="32" xlink:href="#p" />
<use x="672" y="32" xlink:href="#p" />
<use x="688" y="32" xlink:href="#p" />
<use x="704" y="32" xlink:href="#p" />
<use x="720" y="32" xlink:href="#p" />
<use x="736" y="32" xlink:href="#p" />
<use x="32" y="48" xlink:href="#p" />
<use x="128" y="48" xlink:href="#p" />
<use x="176" y="48" xlink:href="#p" />
<use x="192" y="48" xlink:href="#p" />
<use x="224" y="48" xlink:href="#p" />
<use x="256" y="48" xlink:href="#p" />
<use x="288" y="48" xlink:href="#p" />
<use x="320" y="48" xlink:href="#p" />
<use x="368" y="48" xlink:href="#p" />
<use x="384" y="48" xlink:href="#p" />
<use x="416" y="48" xlink:href="#p" />
<use x="448" y="48" xlink:href="#p" />
<use x="464" y="48" xlink:href="#p" />
<use x="496" y="48" xlink:href="#p" />
<use x="528" y="48" xlink:href="#p" />
<use x="560" y="48" xlink:href="#p" />
<use x="592" y="48" xlink:href="#p" />
<use x="640" y="48" xlink:href="#p" />
<use x="736" y="48" xlink:href="#p" />
<use x="32" y="64" xlink:href="#p" />
<use x="64" y="64" xlink:href="#p" />
<use x="80" y="64" xlink:href="#p" />
<use x="96" y="64" xlink:href="#p" />
<use x="128" y="64" xlink:href="#p" />
<use x="176" y="64" xlink:href="#p" />
<use x="272" y="64" xlink:href="#p" />
<use x="288" y="64" xlink:href="#p" />
<use x="304" y="64" xlink:href="#p" />
<use x="320" y="64" xlink:href="#p" />
<use x="336" y="64" xlink:href="#p" />
<use x="384" y="64" xlink:href="#p" />
<use x="432" y="64" xlink:href="#p" />
<use x="448" y="64" xlink:href="#p" />
<use x="480" y="64" xlink:href="#p" />
<use x="496" y="64" xlink:href="#p" />
<use x="544" y="64" xlink:href="#p" />
<use x="560" y="64" xlink:href="#p" />
<use x="592" y="64" xlink:href="#p" />
<use x="640" y="64" xlink:href="#p" />
<use x="672" y="64" xlink:href="#p" />
<use x="688" y="64" xlink:href="#p" />
<use x="704" y="64" xlink:href="#p" />
<use x="736" y="64" xlink:href="#p" />
<use x="32" y="80" xlink:href="#p" />
<use x="64" y="80" xlink:href="#p" />
<use x="80" y="80" xlink:href="#p" />
<use x="96" y="80" xlink:href="#p" />
<use x="128" y="80" xlink:href="#p" />
<use x="208" y="80" xlink:href="#p" />
<use x="256" y="80" xlink:href="#p" />
<use x="304" y="80" xlink:href="#p" />
<use x="336" y="80" xlink:href="#p" />
<use x="368" y="80" xlink:href="#p" />
<use x="384" y="80" xlink:href="#p" />
<use x="400" y="80" xlink:href="#p" />
<use x="448" y="80" xlink:href="#p" />
<use x="496" y="80" xlink:href="#p" />
<use x="528" y="80" xlink:href="#p" />
<use x="592" y="80" xlink:href="#p" />
<use x="608" y="80" xlink:href="#p" />
<use x="640" y="80" xlink:href="#p" />
<use x="672" y="80" xlink:href="#p" />
<use x="688" y="80" xlink:href="#p" />
<use x="704" y="80" xlink:href="#p" />
<use x="736" y="80" xlink:href="#p" />
<use x="32" y="96" xlink:href="#p" />
<use x="64" y="96" xlink:href="#p" />
<use x="80" y="96" xlink:href="#p" />
<use x="96" y="96" xlink:href="#p" />
<use x="128" y="96" xlink:href="#p" />
<use x="160" y="96" xlink:href="#p" />
<use x="208" y="96" xlink:href="#p" />
<use x="224" y="96" xlink:href="#p" />
<use x="240" y="96" xlink:href="#p" />
<use x="288" y="96" xlink:href="#p" />
<use x="336" y="96" xlink:href="#p" />
<use x="352" y="96" xlink:href="#p" />
<use x="368" y="96" xlink:href="#p" />
<use x="384" y="96" xlink:href="#p" />
<use x="400" y="96" xlink:href="#p" />
<use x="416" y="96" xlink:href="#p" />
<use x="432" y="96" xlink:href="#p" />
<use x="448" y="96" xlink:href="#p" />
<use x="464" y="96" xlink:href="#p" />
<use x="480" y="96" xlink:href="#p" />
<use x="496" y="96" xlink:href="#p" />
<use x="512" y="96" xlink:href="#p" />
<use x="544" y="96" xlink:href="#p" />
<use x="576" y="96" xlink:href="#p" />
<use x="592" y="96" xlink:href="#p" />
<use x="608" y="96" xlink:href="#p" />
<use x="640" y="96" xlink:href="#p" />
<use x="672" y="96" xlink:href="#p" />
<use x="688" y="96" xlink:href="#p" />
<use x="704" y="96" xlink:href="#p" />
<use x="736" y="96" xlink:href="#p" />
<use x="32" y="112" xlink:href="#p" />
<use x="128" y="112" xlink:href="#p" />
<use x="160" y="112" xlink:href="#p" />
<use x="208" y="112" xlink:href="#p" />
<use x="224" y="112" xlink:href="#p" />
<use x="256" y="112" xlink:href="#p" />
<use x="272" y="112" xlink:href="#p" />
<use x="288" y="112" xlink:href="#p" />
<use x="304" y="112" xlink:href="#p" />
<use x="320" y="112" xlink:href="#p" />
<use x="336" y="112" xlink:href="#p" />
<use x="352" y="112" xlink:href="#p" />
<use x="416" y="112" xlink:href="#p" />
<use x="464" y="112" xlink:href="#p" />
<use x="640" y="112" xlink:href="#p" />
<use x="736" y="112" xlink:href="#p" />
<use x="32" y="128" xlink:href="#p" />
<use x="48" y="128" xlink:href="#p" />
<use x="64" y="128" xlink:href="#p" />
<use x="80" y="128" xlink:href="#p" />
<use x="96" y="128" xlink:href="#p" />
<use x="112" y="128" xlink:href="#p" />
<use x="128" y="128" xlink:href="#p" />
<use x="160" y="128" xlink:href="#p" />
<use x="192" y="128" xlink:href="#p" />
<use x="224" y="128" xlink:href="#p" />
<use x="256" y="128" xlink:href="#p" />
<use x="288" y="128" xlink:href="#p" />
<use x="320" y="128" xlink:href="#p" />
<use x="352" y="128" xlink:href="#p" />
<use x="384" y="128" xlink:href="#p" />
<use x="416" y="128" xlink:href="#p" />
<use x="448" y="128" xlink:href="#p" />
<use x="480" y="128" xlink:href="#p" />
<use x="512" y="128" xlink:href="#p" />
<use x="544" y="128" xlink:href="#p" />
<use x="576" y="128" xlink:href="#p" />
<use x="608" y="128" xlink:href="#p" />
<use x="640" y="128" xlink:href="#p" />
<use x="656" y="128" xlink:href="#p" />
<use x="672" y="128" xlink:href="#p" />
<use x="688" y="128" xlink:href="#p" />
<use x="704" y="128" xlink:href="#p" />
<use x="720" y="128" xlink:href="#p" />
<use x="736" y="128" xlink:href="#p" />
<use x="176" y="144" xlink:href="#p" />
<use x="224" y="144" xlink:href="#p" />
<use x="256" y="144" xlink:href="#p" />
<use x="352" y="144" xlink:href="#p" />
<use x="416" y="144" xlink:href="#p" />
<use x="512" y="144" xlink:href="#p" />
<use x="528" y="144" xlink:href="#p" />
<use x="544" y="144" xlink:href="#p" />
<use x="560" y="144" xlink:href="#p" />
<use x="592" y="144" xlink:href="#p" />
<use x="608" y="144" xlink:href="#p" />
<use x="48" y="160" xlink:href="#p" />
<use x="64" y="160" xlink:href="#p" />
<use x="80" y="160" xlink:href="#p" />
<use x="96" y="160" xlink:href="#p" />
<use x="112" y="160" xlink:href="#p" />
<use x="128" y="160" xlink:href="#p" />
<use x="144" y="160" xlink:href="#p" />
<use x="240" y="160" xlink:href="#p" />
<use x="256" y="160" xlink:href="#p" />
<use x="272" y="160" xlink:href="#p" />
<use x="288" y="160" xlink:href="#p" />
<use x="320" y="160" xlink:href="#p" />
<use x="352" y="160" xlink:href="#p" />
<use x="368" y="160" xlink:href="#p" />
<use x="384" y="160" xlink:href="#p" />
<use x="400" y="160" xlink:href="#p" />
<use x="416" y="160" xlink:href="#p" />
<use x="464" y="160" xlink:href="#p" />
<use x="480" y="160" xlink:href="#p" />
<use x="560" y="160" xlink:href="#p" />
<use x="576" y="160" xlink:href="#p" />
<use x="656" y="160" xlink:href="#p" />
<use x="672" y="160" xlink:href="#p" />
<use x="736" y="160" xlink:href="#p" />
<use x="32" y="176" xlink:href="#p" />
<use x="48" y="176" xlink:href="#p" />
<use x="64" y="176" xlink:href="#p" />
<use x="96" y="176" xlink:href="#p" />
<use x="160" y="176" xlink:href="#p" />
<use x="176" y="176" xlink:href="#p" />
<use x="192" y="176" xlink:href="#p" />
<use x="240" y="176" xlink:href="#p" />
<use x="256" y="176" xlink:href="#p" />
<use x="272" y="176" xlink:href="#p" />
<use x="288" y="176" xlink:href="#p" />
<use x="368" y="176" xlink:href="#p" />
<use x="400" y="176" xlink:href="#p" />
<use x="480" y="176" xlink:href="#p" />
<use x="496" y="176" xlink:href="#p" />
<use x="512" y="176" xlink:href="#p" />
<use x="528" y="176" xlink:href="#p" />
<use x="592" y="176" xlink:href="#p" />
<use x="608" y="176" xlink:href="#p" />
<use x="624" y="176" xlink:href="#p" />
<use x="656" y="176" xlink:href="#p" />
<use x="704" y="176" xlink:href="#p" />
<use x="720" y="176" xlink:href="#p" />
<use x="736" y="176" xlink:href="#p" />
<use x="48" y="192" xlink:href="#p" />
<use x="80" y="192" xlink:href="#p" />
<use x="128" y="192" xlink:href="#p" />
<use x="160" y="192" xlink:href="#p" />
<use x="192" y="192" xlink:href="#p" />
<use x="208" y="192" xlink:href="#p" />
<use x="240" y="192" xlink:href="#p" />
<use x="256" y="192" xlink:href="#p" />
<use x="272" y="192" xlink:href="#p" />
<use x="304" y="192" xlink:href="#p" />
<use x="320" y="192" xlink:href="#p" />
<use x="336" y="192" xlink:href="#p" />
<use x="368" y="192" xlink:href="#p" />
<use x="400" y="192" xlink:href="#p" />
<use x="432" y="192" xlink:href="#p" />
<use x="496" y="192" xlink:href="#p" />
<use x="528" y="192" xlink:href="#p" />
<use x="544" y="192" xlink:href="#p" />
<use x="560" y="192" xlink:href="#p" />
<use x="592" y="192" xlink:href="#p" />
<use x="624" y="192" xlink:href="#p" />
<use x="640" y="192" xlink:href="#p" />
<use x="704" y="192" xlink:href="#p" />
<use x="720" y="192" xlink:href="#p" />
<use x="96" y="208" xlink:href="#p" />
<use x="144" y="208" xlink:href="#p" />
<use x="160" y="208" xlink:href="#p" />
<use x="240" y="208" xlink:href="#p" />
<use x="288" y="208" xlink:href="#p" />
<use x="304" y="208" xlink:href="#p" />
<use x="320" y="208" xlink:href="#p" />
<use x="336" y="208" xlink:href="#p" />
<use x="368" y="208" xlink:href="#p" />
<use x="384" y="208" xlink:href="#p" />
<use x="416" y="208" xlink:href="#p" />
<use x="432" y="208" xlink:href="#p" />
<use x="480" y="208" xlink:href="#p" />
<use x="560" y="208" xlink:href="#p" />
<use x="592" y="208" xlink:href="#p" />
<use x="624" y="208" xlink:href="#p" />
<use x="640" y="208" xlink:href="#p" />
<use x="672" y="208" xlink:href="#p" />
<use x="688" y="208" xlink:href="#p" />
<use x="720" y="208" xlink:href="#p" />
<use x="48" y="224" xlink:href="#p" />
<use x="80" y="224" xlink:href="#p" />
<use x="128" y="224" xlink:href="#p" />
<use x="208" y="224" xlink:href="#p" />
<use x="224" y="224" xlink:href="#p" />
<use x="320" y="224" xlink:href="#p" />
<use x="336" y="224" xlink:href="#p" />
<use x="352" y="224" xlink:href="#p" />
<use x="384" y="224" xlink:href="#p" />
<use x="416" y="224" xlink:href="#p" />
<use x="448" y="224" xlink:href="#p" />
<use x="496" y="224" xlink:href="#p" />
<use x="528" y="224" xlink:href="#p" />
<use x="576" y="224" xlink:href="#p" />
<use x="624" y="224" xlink:href="#p" />
<use x="640" y="224" xlink:href="#p" />
<use x="736" y="224" xlink:href="#p" />
<use x="32" y="240" xlink:href="#p" />
<use x="64" y="240" xlink:href="#p" />
<use x="176" y="240" xlink:href="#p" />
<use x="192" y="240" xlink:href="#p" />
<use x="208" y="240" xlink:href="#p" />
<use x="224" y="240" xlink:href="#p" />
<use x="240" y="240" xlink:href="#p" />
<use x="272" y="240" xlink:href="#p" />
<use x="320" y="240" xlink:href="#p" />
<use x="352" y="240" xlink:href="#p" />
<use x="464" y="240" xlink:href="#p" />
<use x="496" y="240" xlink:href="#p" />
<use x="512" y="240" xlink:href="#p" />
<use x="544" y="240" xlink:href="#p" />
<use x="592" y="240" xlink:href="#p" />
<use x="608" y="240" xlink:href="#p" />
<use x="624" y="240" xlink:href="#p" />
<use x="672" y="240" xlink:href="#p" />
<use x="688" y="240" xlink:href="#p" />
<use x="704" y="240" xlink:href="#p" />
<use x="736" y="240" xlink:href="#p" />
<use x="32" y="256" xlink:href="#p" />
<use x="48" y="256" xlink:href="#p" />
<use x="96" y="256" xlink:href="#p" />
<use x="112" y="256" xlink:href="#p" />
<use x="128" y="256" xlink:href="#p" />
<use x="192" y="256" xlink:href="#p" />
<use x="208" y="256" xlink:href="#p" />
<use x="224" y="256" xlink:href="#p" />
<use x="272" y="256" xlink:href="#p" />
<use x="352" y="256" xlink:href="#p" />
<use x="384" y="256" xlink:href="#p" />
<use x="432" y="256" xlink:href="#p" />
<use x="448" y="256" xlink:href="#p" />
<use x="512" y="256" xlink:href="#p" />
<use x="528" y="256" xlink:href="#p" />
<use x="560" y="256" xlink:href="#p" />
<use x="576" y="256" xlink:href="#p" />
<use x="608" y="256" xlink:href="#p" />
<use x="640" y="256" xlink:href="#p" />
<use x="656" y="256" xlink:href="#p" />
<use x="704" y="256" xlink:href="#p" />
<use x="720" y="256" xlink:href="#p" />
<use x="32" y="272" xlink:href="#p" />
<use x="48" y="272" xlink:href="#p" />
<use x="80" y="272" xlink:href="#p" />
<use x="112" y="272" xlink:href="#p" />
<use x="160" y="272" xlink:href="#p" />
<use x="192" y="272" xlink:href="#p" />
<use x="224" y="272" xlink:href="#p" />
<use x="272" y="272" xlink:href="#p" />
<use x="288" y="272" xlink:href="#p" />
<use x="304" y="272" xlink:href="#p" />
<use x="336" y="272" xlink:href="#p" />
<use x="368" y="272" xlink:href="#p" />
<use x="400" y="272" xlink:href="#p" />
<use x="464" y="272" xlink:href="#p" />
<use x="480" y="272" xlink:href="#p" />
<use x="496" y="272" xlink:href="#p" />
<use x="512" y="272" xlink:href="#p" />
<use x="528" y="272" xlink:href="#p" />
<use x="544" y="272" xlink:href="#p" />
<use x="560" y="272" xlink:href="#p" />
<use x="576" y="272" xlink:href="#p" />
<use x="592" y="272" xlink:href="#p" />
<use x="624" y="272" xlink:href="#p" />
<use x="640" y="272" xlink:href="#p" />
<use x="672" y="272" xlink:href="#p" />
<use x="688" y="272" xlink:href="#p" />
<use x="704" y="272" xlink:href="#p" />
<use x="736" y="272" xlink:href="#p" />
<use x="64" y="288" xlink:href="#p" />
<use x="80" y="288" xlink:href="#p" />
<use x="96" y="288" xlink:href="#p" />
<use x="112" y="288" xlink:href="#p" />
<use x="128" y="288" xlink:href="#p" />
<use x="176" y="288" xlink:href="#p" />
<use x="208" y="288" xlink:href="#p" />
<use x="224" y="288" xlink:href="#p" />
<use x="240" y="288" xlink:href="#p" />
<use x="256" y="288" xlink:href="#p" />
<use x="272" y="288" xlink:href="#p" />
<use x="304" y="288" xlink:href="#p" />
<use x="320" y="288" xlink:href="#p" />
<use x="336" y="288" xlink:href="#p" />
<use x="368" y="288" xlink:href="#p" />
<use x="448" y="288" xlink:href="#p" />
<use x="528" y="288" xlink:href="#p" />
<use x="560" y="288" xlink:href="#p" />
<use x="576" y="288" xlink:href="#p" />
<use x="592" y="288" xlink:href="#p" />
<use x="624" y="288" xlink:href="#p" />
<use x="640" y="288" xlink:href="#p" />
<use x="656" y="288" xlink:href="#p" />
<use x="688" y="288" xlink:href="#p" />
<use x="720" y="288" xlink:href="#p" />
<use x="736" y="288" xlink:href="#p" />
<use x="32" y="304" xlink:href="#p" />
<use x="64" y="304" xlink:href="#p" />
<use x="160" y="304" xlink:href="#p" />
<use x="192" y="304" xlink:href="#p" />
<use x="208" y="304" xlink:href="#p" />
<use x="256" y="304" xlink:href="#p" />
<use x="304" y="304" xlink:href="#p" />
<use x="352" y="304" xlink:href="#p" />
<use x="384" y="304" xlink:href="#p" />
<use x="400" y="304" xlink:href="#p" />
<use x="432" y="304" xlink:href="#p" />
<use x="464" y="304" xlink:href="#p" />
<use x="480" y="304" xlink:href="#p" />
<use x="496" y="304" xlink:href="#p" />
<use x="512" y="304" xlink:href="#p" />
<use x="528" y="304" xlink:href="#p" />
<use x="560" y="304" xlink:href="#p" />
<use x="608" y="304" xlink:href="#p" />
<use x="624" y="304" xlink:href="#p" />
<use x="656" y="304" xlink:href="#p" />
<use x="672" y="304" xlink:href="#p" />
<use x="688" y="304" xlink:href="#p" />
<use x="736" y="304" xlink:href="#p" />
<use x="48" y="320" xlink:href="#p" />
<use x="80" y="320" xlink:href="#p" />
<use x="96" y="320" xlink:href="#p" />
<use x="128" y="320" xlink:href="#p" />
<use x="144" y="320" xlink:href="#p" />
<use x="160" y="320" xlink:href="#p" />
<use x="208" y="320" xlink:href="#p" />
<use x="240" y="320" xlink:href="#p" />
<use x="256" y="320" xlink:href="#p" />
<use x="272" y="320" xlink:href="#p" />
<use x="288" y="320" xlink:href="#p" />
<use x="304" y="320" xlink:href="#p" />
<use x="320" y="320" xlink:href="#p" />
<use x="336" y="320" xlink:href="#p" />
<use x="368" y="320" xlink:href="#p" />
<use x="384" y="320" xlink:href="#p" />
<use x="400" y="320" xlink:href="#p" />
<use x="432" y="320" xlink:href="#p" />
<use x="496" y="320" xlink:href="#p" />
<use x="528" y="320" xlink:href="#p" />
<use x="560" y="320" xlink:href="#p" />
<use x="576" y="320" xlink:href="#p" />
<use x="592" y="320" xlink:href="#p" />
<use x="640" y="320" xlink:href="#p" />
<use x="656" y="320" xlink:href="#p" />
<use x="688" y="320" xlink:href="#p" />
<use x="720" y="320" xlink:href="#p" />
<use x="96" y="336" xlink:href="#p" />
<use x="176" y="336" xlink:href="#p" />
<use x="192" y="336" xlink:href="#p" />
<use x="240" y="336" xlink:href="#p" />
<use x="256" y="336" xlink:href="#p" />
<use x="288" y="336" xlink:href="#p" />
<use x="304" y="336" xlink:href="#p" />
<use x="352" y="336" xlink:href="#p" />
<use x="416" y="336" xlink:href="#p" />
<use x="464" y="336" xlink:href="#p" />
<use x="544" y="336" xlink:href="#p" />
<use x="608" y="336" xlink:href="#p" />
<use x="640" y="336" xlink:href="#p" />
<use x="656" y="336" xlink:href="#p" />
<use x="688" y="336" xlink:href="#p" />
<use x="704" y="336" xlink:href="#p" />
<use x="736" y="336" xlink:href="#p" />
<use x="48" y="352" xlink:href="#p" />
<use x="64" y="352" xlink:href="#p" />
<use x="96" y="352" xlink:href="#p" />
<use x="112" y="352" xlink:href="#p" />
<use x="128" y="352" xlink:href="#p" />
<use x="144" y="352" xlink:href="#p" />
<use x="160" y="352" xlink:href="#p" />
<use x="176" y="352" xlink:href="#p" />
<use x="192" y="352" xlink:href="#p" />
<use x="208" y="352" xlink:href="#p" />
<use x="240" y="352" xlink:href="#p" />
<use x="256" y="352" xlink:href="#p" />
<use x="272" y="352" xlink:href="#p" />
<use x="304" y="352" xlink:href="#p" />
<use x="352" y="352" xlink:href="#p" />
<use x="368" y="352" xlink:href="#p" />
<use x="384" y="352" xlink:href="#p" />
<use x="400" y="352" xlink:href="#p" />
<use x="416" y="352" xlink:href="#p" />
<use x="432" y="352" xlink:href="#p" />
<use x="464" y="352" xlink:href="#p" />
<use x="496" y="352" xlink:href="#p" />
<use x="512" y="352" xlink:href="#p" />
<use x="528" y="352" xlink:href="#p" />
<use x="592" y="352" xlink:href="#p" />
<use x="608" y="352" xlink:href="#p" />
<use x="624" y="352" xlink:href="#p" />
<use x="640" y="352" xlink:href="#p" />
<use x="656" y="352" xlink:href="#p" />
<use x="672" y="352" xlink:href="#p" />
<use x="688" y="352" xlink:href="#p" />
<use x="720" y="352" xlink:href="#p" />
<use x="48" y="368" xlink:href="#p" />
<use x="80" y="368" xlink:href="#p" />
<use x="96" y="368" xlink:href="#p" />
<use x="160" y="368" xlink:href="#p" />
<use x="176" y="368" xlink:href="#p" />
<use x="192" y="368" xlink:href="#p" />
<use x="256" y="368" xlink:href="#p" />
<use x="288" y="368" xlink:href="#p" />
<use x="304" y="368" xlink:href="#p" />
<use x="320" y="368" xlink:href="#p" />
<use x="352" y="368" xlink:href="#p" />
<use x="416" y="368" xlink:href="#p" />
<use x="480" y="368" xlink:href="#p" />
<use x="496" y="368" xlink:href="#p" />
<use x="512" y="368" xlink:href="#p" />
<use x="528" y="368" xlink:href="#p" />
<use x="544" y="368" xlink:href="#p" />
<use x="560" y="368" xlink:href="#p" />
<use x="592" y="368" xlink:href="#p" />
<use x="608" y="368" xlink:href="#p" />
<use x="672" y="368" xlink:href="#p" />
<use x="720" y="368" xlink:href="#p" />
<use x="736" y="368" xlink:href="#p" />
<use x="64" y="384" xlink:href="#p" />
<use x="80" y="384" xlink:href="#p" />
<use x="96" y="384" xlink:href="#p" />
<use x="128" y="384" xlink:href="#p" />
<use x="160" y="384" xlink:href="#p" />
<use x="176" y="384" xlink:href="#p" />
<use x="192" y="384" xlink:href="#p" />
<use x="208" y="384" xlink:href="#p" />
<use x="224" y="384" xlink:href="#p" />
<use x="240" y="384" xlink:href="#p" />
<use x="256" y="384" xlink:href="#p" />
<use x="336" y="384" xlink:href="#p" />
<use x="352" y="384" xlink:href="#p" />
<use x="384" y="384" xlink:href="#p" />
<use x="416" y="384" xlink:href="#p" />
<use x="432" y="384" xlink:href="#p" />
<use x="560" y="384" xlink:href="#p" />
<use x="576" y="384" xlink:href="#p" />
<use x="592" y="384" xlink:href="#p" />
<use x="608" y="384" xlink:href="#p" />
<use x="640" y="384" xlink:href="#p" />
<use x="672" y="384" xlink:href="#p" />
<use x="704" y="384" xlink:href="#p" />
<use x="48" y="400" xlink:href="#p" />
<use x="64" y="400" xlink:href="#p" />
<use x="80" y="400" xlink:href="#p" />
<use x="96" y="400" xlink:href="#p" />
<use x="160" y="400" xlink:href="#p" />
<use x="192" y="400" xlink:href="#p" />
<use x="208" y="400" xlink:href="#p" />
<use x="240" y="400" xlink:href="#p" />
<use x="272" y="400" xlink:href="#p" />
<use x="288" y="400" xlink:href="#p" />
<use x="320" y="400" xlink:href="#p" />
<use x="336" y="400" xlink:href="#p" />
<use x="352" y="400" xlink:href="#p" />
<use x="416" y="400" xlink:href="#p" />
<use x="432" y="400" xlink:href="#p" />
<use x="464" y="400" xlink:href="#p" />
<use x="512" y="400" xlink:href="#p" />
<use x="544" y="400" xlink:href="#p" />
<use x="576" y="400" xlink:href="#p" />
<use x="608" y="400" xlink:href="#p" />
<use x="672" y="400" xlink:href="#p" />
<use x="688" y="400" xlink:href="#p" />
<use x="704" y="400" xlink:href="#p" />
<use x="720" y="400" xlink:href="#p" />
<use x="736" y="400" xlink:href="#p" />
<use x="32" y="416" xlink:href="#p" />
<use x="48" y="416" xlink:href="#p" />
<use x="96" y="416" xlink:href="#p" />
<use x="112" y="416" xlink:href="#p" />
<use x="128" y="416" xlink:href="#p" />
<use x="144" y="416" xlink:href="#p" />
<use x="160" y="416" xlink:href="#p" />
<use x="224" y="416" xlink:href="#p" />
<use x="240" y="416" xlink:href="#p" />
<use x="272" y="416" xlink:href="#p" />
<use x="304" y="416" xlink:href="#p" />
<use x="336" y="416" xlink:href="#p" />
<use x="352" y="416" xlink:href="#p" />
<use x="368" y="416" xlink:href="#p" />
<use x="384" y="416" xlink:href="#p" />
<use x="400" y="416" xlink:href="#p" />
<use x="416" y="416" xlink:href="#p" />
<use x="432" y="416" xlink:href="#p" />
<use x="528" y="416" xlink:href="#p" />
<use x="560" y="416" xlink:href="#p" />
<use x="592" y="416" xlink:href="#p" />
<use x="608" y="416" xlink:href="#p" />
<use x="624" y="416" xlink:href="#p" />
<use x="640" y="416" xlink:href="#p" />
<use x="656" y="416" xlink:href="#p" />
<use x="672" y="416" xlink:href="#p" />
<use x="688" y="416" xlink:href="#p" />
<use x="720" y="416" xlink:href="#p" />
<use x="736" y="416" xlink:href="#p" />
<use x="32" y="432" xlink:href="#p" />
<use x="64" y="432" xlink:href="#p" />
<use x="112" y="432" xlink:href="#p" />
<use x="144" y="432" xlink:href="#p" />
<use x="192" y="432" xlink:href="#p" />
<use x="208" y="432" xlink:href="#p" />
<use x="224" y="432" xlink:href="#p" />
<use x="240" y="432" xlink:href="#p" />
<use x="272" y="432" xlink:href="#p" />
<use x="288" y="432" xlink:href="#p" />
<use x="304" y="432" xlink:href="#p" />
<use x="320" y="432" xlink:href="#p" />
<use x="400" y="432" xlink:href="#p" />
<use x="448" y="432" xlink:href="#p" />
<use x="464" y="432" xlink:href="#p" />
<use x="480" y="432" xlink:href="#p" />
<use x="496" y="432" xlink:href="#p" />
<use x="512" y="432" xlink:href="#p" />
<use x="528" y="432" xlink:href="#p" />
<use x="544" y="432" xlink:href="#p" />
<use x="640" y="432" xlink:href="#p" />
<use x="688" y="432" xlink:href="#p" />
<use x="704" y="432" xlink:href="#p" />
<use x="720" y="432" xlink:href="#p" />
<use x="736" y="432" xlink:href="#p" />
<use x="48" y="448" xlink:href="#p" />
<use x="80" y="448" xlink:href="#p" />
<use x="96" y="448" xlink:href="#p" />
<use x="128" y="448" xlink:href="#p" />
<use x="144" y="448" xlink:href="#p" />
<use x="160" y="448" xlink:href="#p" />
<use x="192" y="448" xlink:href="#p" />
<use x="224" y="448" xlink:href="#p" />
<use x="240" y="448" xlink:href="#p" />
<use x="272" y="448" xlink:href="#p" />
<use x="288" y="448" xlink:href="#p" />
<use x="304" y="448" xlink:href="#p" />
<use x="336" y="448" xlink:href="#p" />
<use x="384" y="448" xlink:href="#p" />
<use x="400" y="448" xlink:href="#p" />
<use x="528" y="448" xlink:href="#p" />
<use x="544" y="448" xlink:href="#p" />
<use x="560" y="448" xlink:href="#p" />
<use x="576" y="448" xlink:href="#p" />
<use x="592" y="448" xlink:href="#p" />
<use x="656" y="448" xlink:href="#p" />
<use x="688" y="448" xlink:href="#p" />
<use x="96" y="464" xlink:href="#p" />
<use x="144" y="464" xlink:href="#p" />
<use x="160" y="464" xlink:href="#p" />
<use x="176" y="464" xlink:href="#p" />
<use x="208" y="464" xlink:href="#p" />
<use x="224" y="464" xlink:href="#p" />
<use x="256" y="464" xlink:href="#p" />
<use x="272" y="464" xlink:href="#p" />
<use x="336" y="464" xlink:href="#p" />
<use x="416" y="464" xlink:href="#p" />
<use x="432" y="464" xlink:href="#p" />
<use x="464" y="464" xlink:href="#p" />
<use x="480" y="464" xlink:href="#p" />
<use x="496" y="464" xlink:href="#p" />
<use x="528" y="464" xlink:href="#p" />
<use x="544" y="464" xlink:href="#p" />
<use x="560" y="464" xlink:href="#p" />
<use x="592" y="464" xlink:href="#p" />
<use x="624" y="464" xlink:href="#p" />
<use x="640" y="464" xlink:href="#p" />
<use x="656" y="464" xlink:href="#p" />
<use x="672" y="464" xlink:href="#p" />
<use x="688" y="464" xlink:href="#p" />
<use x="704" y="464" xlink:href="#p" />
<use x="80" y="480" xlink:href="#p" />
<use x="128" y="480" xlink:href="#p" />
<use x="160" y="480" xlink:href="#p" />
<use x="176" y="480" xlink:href="#p" />
<use x="224" y="480" xlink:href="#p" />
<use x="240" y="480" xlink:href="#p" />
<use x="288" y="480" xlink:href="#p" />
<use x="320" y="480" xlink:href="#p" />
<use x="352" y="480" xlink:href="#p" />
<use x="368" y="480" xlink:href="#p" />
<use x="384" y="480" xlink:href="#p" />
<use x="400" y="480" xlink:href="#p" />
<use x="432" y="480" xlink:href="#p" />
<use x="496" y="480" xlink:href="#p" />
<use x="512" y="480" xlink:href="#p" />
<use x="528" y="480" xlink:href="#p" />
<use x="560" y="480" xlink:href="#p" />
<use x="576" y="480" xlink:href="#p" />
<use x="624" y="480" xlink:href="#p" />
<use x="656" y="480" xlink:href="#p" />
<use x="672" y="480" xlink:href="#p" />
<use x="736" y="480" xlink:href="#p" />
<use x="80" y="496" xlink:href="#p" />
<use x="96" y="496" xlink:href="#p" />
<use x="144" y="496" xlink:href="#p" />
<use x="192" y="496" xlink:href="#p" />
<use x="240" y="496" xlink:href="#p" />
<use x="272" y="496" xlink:href="#p" />
<use x="288" y="496" xlink:href="#p" />
<use x="304" y="496" xlink:href="#p" />
<use x="320" y="496" xlink:href="#p" />
<use x="384" y="496" xlink:href="#p" />
<use x="400" y="496" xlink:href="#p" />
<use x="432" y="496" xlink:href="#p" />
<use x="448" y="496" xlink:href="#p" />
<use x="464" y="496" xlink:href="#p" />
<use x="480" y="496" xlink:href="#p" />
<use x="512" y="496" xlink:href="#p" />
<use x="528" y="496" xlink:href="#p" />
<use x="592" y="496" xlink:href="#p" />
<use x="624" y="496" xlink:href="#p" />
<use x="656" y="496" xlink:href="#p" />
<use x="688" y="496" xlink:href="#p" />
<use x="704" y="496" xlink:href="#p" />
<use x="64" y="512" xlink:href="#p" />
<use x="96" y="512" xlink:href="#p" />
<use x="112" y="512" xlink:href="#p" />
<use x="128" y="512" xlink:href="#p" />
<use x="144" y="512" xlink:href="#p" />
<use x="176" y="512" xlink:href="#p" />
<use x="208" y="512" xlink:href="#p" />
<use x="240" y="512" xlink:href="#p" />
<use x="304" y="512" xlink:href="#p" />
<use x="320" y="512" xlink:href="#p" />
<use x="336" y="512" xlink:href="#p" />
<use x="352" y="512" xlink:href="#p" />
<use x="400" y="512" xlink:href="#p" />
<use x="432" y="512" xlink:href="#p" />
<use x="464" y="512" xlink:href="#p" />
<use x="480" y="512" xlink:href="#p" />
<use x="576" y="512" xlink:href="#p" />
<use x="608" y="512" xlink:href="#p" />
<use x="624" y="512" xlink:href="#p" />
<use x="720" y="512" xlink:href="#p" />
<use x="736" y="512" xlink:href="#p" />
<use x="32" y="528" xlink:href="#p" />
<use x="48" y="528" xlink:href="#p" />
<use x="64" y="528" xlink:href="#p" />
<use x="80" y="528" xlink:href="#p" />
<use x="112" y="528" xlink:href="#p" />
<use x="160" y="528" xlink:href="#p" />
<use x="192" y="528" xlink:href="#p" />
<use x="208" y="528" xlink:href="#p" />
<use x="224" y="528" xlink:href="#p" />
<use x="272" y="528" xlink:href="#p" />
<use x="288" y="528" xlink:href="#p" />
<use x="336" y="528" xlink:href="#p" />
<use x="352" y="528" xlink:href="#p" />
<use x="368" y="528" xlink:href="#p" />
<use x="384" y="528" xlink:href="#p" />
<use x="432" y="528" xlink:href="#p" />
<use x="448" y="528" xlink:href="#p" />
<use x="512" y="528" xlink:href="#p" />
<use x="592" y="528" xlink:href="#p" />
<use x="608" y="528" xlink:href="#p" />
<use x="624" y="528" xlink:href="#p" />
<use x="640" y="528" xlink:href="#p" />
<use x="688" y="528" xlink:href="#p" />
<use x="704" y="528" xlink:href="#p" />
<use x="736" y="528" xlink:href="#p" />
<use x="32" y="544" xlink:href="#p" />
<use x="80" y="544" xlink:href="#p" />
<use x="96" y="544" xlink:href="#p" />
<use x="112" y="544" xlink:href="#p" />
<use x="128" y="544" xlink:href="#p" />
<use x="176" y="544" xlink:href="#p" />
<use x="192" y="544" xlink:href="#p" />
<use x="208" y="544" xlink:href="#p" />
<use x="256" y="544" xlink:href="#p" />
<use x="272" y="544" xlink:href="#p" />
<use x="320" y="544" xlink:href="#p" />
<use x="336" y="544" xlink:href="#p" />
<use x="368" y="544" xlink:href="#p" />
<use x="384" y="544" xlink:href="#p" />
<use x="400" y="544" xlink:href="#p" />
<use x="496" y="544" xlink:href="#p" />
<use x="528" y="544" xlink:href="#p" />
<use x="576" y="544" xlink:href="#p" />
<use x="608" y="544" xlink:href="#p" />
<use x="656" y="544" xlink:href="#p" />
<use x="672" y="544" xlink:href="#p" />
<use x="720" y="544" xlink:href="#p" />
<use x="736" y="544" xlink:href="#p" />
<use x="32" y="560" xlink:href="#p" />
<use x="80" y="560" xlink:href="#p" />
<use x="176" y="560" xlink:href="#p" />
<use x="256" y="560" xlink:href="#p" />
<use x="320" y="560" xlink:href="#p" />
<use x="368" y="560" xlink:href="#p" />
<use x="432" y="560" xlink:href="#p" />
<use x="464" y="560" xlink:href="#p" />
<use x="512" y="560" xlink:href="#p" />
<use x="528" y="560" xlink:href="#p" />
<use x="544" y="560" xlink:href="#p" />
<use x="688" y="560" xlink:href="#p" />
<use x="736" y="560" xlink:href="#p" />
<use x="96" y="576" xlink:href="#p" />
<use x="128" y="576" xlink:href="#p" />
<use x="144" y="576" xlink:href="#p" />
<use x="160" y="576" xlink:href="#p" />
<use x="176" y="576" xlink:href="#p" />
<use x="192" y="576" xlink:href="#p" />
<use x="208" y="576" xlink:href="#p" />
<use x="304" y="576" xlink:href="#p" />
<use x="320" y="576" xlink:href="#p" />
<use x="368" y="576" xlink:href="#p" />
<use x="416" y="576" xlink:href="#p" />
<use x="432" y="576" xlink:href="#p" />
<use x="464" y="576" xlink:href="#p" />
<use x="528" y="576" xlink:href="#p" />
<use x="544" y="576" xlink:href="#p" />
<use x="560" y="576" xlink:href="#p" />
<use x="576" y="576" xlink:href="#p" />
<use x="608" y="576" xlink:href="#p" />
<use x="672" y="576" xlink:href="#p" />
<use x="688" y="576" xlink:href="#p" />
<use x="704" y="576" xlink:href="#p" />
<use x="720" y="576" xlink:href="#p" />
<use x="48" y="592" xlink:href="#p" />
<use x="64" y="592" xlink:href="#p" />
<use x="80" y="592" xlink:href="#p" />
<use x="96" y="592" xlink:href="#p" />
<use x="160" y="592" xlink:href="#p" />
<use x="208" y="592" xlink:href="#p" />
<use x="336" y="592" xlink:href="#p" />
<use x="352" y="592" xlink:href="#p" />
<use x="384" y="592" xlink:href="#p" />
<use x="432" y="592" xlink:href="#p" />
<use x="448" y="592" xlink:href="#p" />
<use x="464" y="592" xlink:href="#p" />
<use x="480" y="592" xlink:href="#p" />
<use x="496" y="592" xlink:href="#p" />
<use x="512" y="592" xlink:href="#p" />
<use x="528" y="592" xlink:href="#p" />
<use x="544" y="592" xlink:href="#p" />
<use x="560" y="592" xlink:href="#p" />
<use x="576" y="592" xlink:href="#p" />
<use x="592" y="592" xlink:href="#p" />
<use x="624" y="592" xlink:href="#p" />
<use x="640" y="592" xlink:href="#p" />
<use x="672" y="592" xlink:href="#p" />
<use x="704" y="592" xlink:href="#p" />
<use x="736" y="592" xlink:href="#p" />
<use x="32" y="608" xlink:href="#p" />
<use x="80" y="608" xlink:href="#p" />
<use x="96" y="608" xlink:href="#p" />
<use x="128" y="608" xlink:href="#p" />
<use x="144" y="608" xlink:href="#p" />
<use x="160" y="608" xlink:href="#p" />
<use x="176" y="608" xlink:href="#p" />
<use x="192" y="608" xlink:href="#p" />
<use x="224" y="608" xlink:href="#p" />
<use x="240" y="608" xlink:href="#p" />
<use x="304" y="608" xlink:href="#p" />
<use x="336" y="608" xlink:href="#p" />
<use x="352" y="608" xlink:href="#p" />
<use x="368" y="608" xlink:href="#p" />
<use x="384" y="608" xlink:href="#p" />
<use x="400" y="608" xlink:href="#p" />
<use x="416" y="608" xlink:href="#p" />
<use x="432" y="608" xlink:href="#p" />
<use x="448" y="608" xlink:href="#p" />
<use x="528" y="608" xlink:href="#p" />
<use x="560" y="608" xlink:href="#p" />
<use x="608" y="608" xlink:href="#p" />
<use x="624" y="608" xlink:href="#p" />
<use x="640" y="608" xlink:href="#p" />
<use x="656" y="608" xlink:href="#p" />
<use x="672" y="608" xlink:href="#p" />
<use x="160" y="624" xlink:href="#p" />
<use x="176" y="624" xlink:href="#p" />
<use x="208" y="624" xlink:href="#p" />
<use x="224" y="624" xlink:href="#p" />
<use x="256" y="624" xlink:href="#p" />
<use x="272" y="624" xlink:href="#p" />
<use x="288" y="624" xlink:href="#p" />
<use x="352" y="624" xlink:href="#p" />
<use x="416" y="624" xlink:href="#p" />
<use x="448" y="624" xlink:href="#p" />
<use x="480" y="624" xlink:href="#p" />
<use x="496" y="624" xlink:href="#p" />
<use x="512" y="624" xlink:href="#p" />
<use x="528" y="624" xlink:href="#p" />
<use x="608" y="624" xlink:href="#p" />
<use x="672" y="624" xlink:href="#p" />
<use x="736" y="624" xlink:href="#p" />
<use x="32" y="640" xlink:href="#p" />
<use x="48" y="640" xlink:href="#p" />
<use x="64" y="640" xlink:href="#p" />
<use x="80" y="640" xlink:href="#p" />
<use x="96" y="640" xlink:href="#p" />
<use x="112" y="640" xlink:href="#p" />
<use x="128" y="640" xlink:href="#p" />
<use x="160" y="640" xlink:href="#p" />
<use x="192" y="640" xlink:href="#p" />
<use x="208" y="640" xlink:href="#p" />
<use x="224" y="640" xlink:href="#p" />
<use x="256" y="640" xlink:href="#p" />
<use x="288" y="640" xlink:href="#p" />
<use x="352" y="640" xlink:href="#p" />
<use x="384" y="640" xlink:href="#p" />
<use x="416" y="640" xlink:href="#p" />
<use x="432" y="640" xlink:href="#p" />
<use x="448" y="640" xlink:href="#p" />
<use x="480" y="640" xlink:href="#p" />
<use x="496" y="640" xlink:href="#p" />
<use x="512" y="640" xlink:href="#p" />
<use x="528" y="640" xlink:href="#p" />
<use x="560" y="640" xlink:href="#p" />
<use x="576" y="640" xlink:href="#p" />
<use x="592" y="640" xlink:href="#p" />
<use x="608" y="640" xlink:href="#p" />
<use x="640" y="640" xlink:href="#p" />
<use x="672" y="640" xlink:href="#p" />
<use x="32" y="656" xlink:href="#p" />
<use x="128" y="656" xlink:href="#p" />
<use x="160" y="656" xlink:href="#p" />
<use x="176" y="656" xlink:href="#p" />
<use x="192" y="656" xlink:href="#p" />
<use x="224" y="656" xlink:href="#p" />
<use x="256" y="656" xlink:href="#p" />
<use x="272" y="656" xlink:href="#p" />
<use x="288" y="656" xlink:href="#p" />
<use x="304" y="656" xlink:href="#p" />
<use x="352" y="656" xlink:href="#p" />
<use x="416" y="656" xlink:href="#p" />
<use x="432" y="656" xlink:href="#p" />
<use x="448" y="656" xlink:href="#p" />
<use x="480" y="656" xlink:href="#p" />
<use x="496" y="656" xlink:href="#p" />
<use x="512" y="656" xlink:href="#p" />
<use x="544" y="656" xlink:href="#p" />
<use x="576" y="656" xlink:href="#p" />
<use x="592" y="656" xlink:href="#p" />
<use x="608" y="656" xlink:href="#p" />
<use x="672" y="656" xlink:href="#p" />
<use x="688" y="656" xlink:href="#p" />
<use x="704" y="656" xlink:href="#p" />
<use x="720" y="656" xlink:href="#p" />
<use x="32" y="672" xlink:href="#p" />
<use x="64" y="672" xlink:href="#p" />
<use x="80" y="672" xlink:href="#p" />
<use x="96" y="672" xlink:href="#p" />
<use x="128" y="672" xlink:href="#p" />
<use x="160" y="672" xlink:href="#p" />
<use x="176" y="672" xlink:href="#p" />
<use x="272" y="672" xlink:href="#p" />
<use x="288" y="672" xlink:href="#p" />
<use x="320" y="672" xlink:href="#p" />
<use x="352" y="672" xlink:href="#p" />
<use x="368" y="672" xlink:href="#p" />
<use x="384" y="672" xlink:href="#p" />
<use x="400" y="672" xlink:href="#p" />
<use x="416" y="672" xlink:href="#p" />
<use x="496" y="672" xlink:href="#p" />
<use x="512" y="672" xlink:href="#p" />
<use x="528" y="672" xlink:href="#p" />
<use x="576" y="672" xlink:href="#p" />
<use x="608" y="672" xlink:href="#p" />
<use x="624" y="672" xlink:href="#p" />
<use x="640" y="672" xlink:href="#p" />
<use x="656" y="672" xlink:href="#p" />
<use x="672" y="672" xlink:href="#p" />
<use x="688" y="672" xlink:href="#p" />
<use x="704" y="672" xlink:href="#p" />
<use x="720" y="672" xlink:href="#p" />
<use x="32" y="688" xlink:href="#p" />
<use x="64" y="688" xlink:href="#p" />
<use x="80" y="688" xlink:href="#p" />
<use x="96" y="688" xlink:href="#p" />
<use x="128" y="688" xlink:href="#p" />
<use x="160" y="688" xlink:href="#p" />
<use x="240" y="688" xlink:href="#p" />
<use x="256" y="688" xlink:href="#p" />
<use x="272" y="688" xlink:href="#p" />
<use x="336" y="688" xlink:href="#p" />
<use x="352" y="688" xlink:href="#p" />
<use x="400" y="688" xlink:href="#p" />
<use x="416" y="688" xlink:href="#p" />
<use x="432" y="688" xlink:href="#p" />
<use x="496" y="688" xlink:href="#p" />
<use x="512" y="688" xlink:href="#p" />
<use x="560" y="688" xlink:href="#p" />
<use x="672" y="688" xlink:href="#p" />
<use x="688" y="688" xlink:href="#p" />
<use x="704" y="688" xlink:href="#p" />
<use x="736" y="688" xlink:href="#p" />
<use x="32" y="704" xlink:href="#p" />
<use x="64" y="704" xlink:href="#p" />
<use x="80" y="704" xlink:href="#p" />
<use x="96" y="704" xlink:href="#p" />
<use x="128" y="704" xlink:href="#p" />
<use x="160" y="704" xlink:href="#p" />
<use x="192" y="704" xlink:href="#p" />
<use x="208" y="704" xlink:href="#p" />
<use x="224" y="704" xlink:href="#p" />
<use x="240" y="704" xlink:href="#p" />
<use x="256" y="704" xlink:href="#p" />
<use x="288" y="704" xlink:href="#p" />
<use x="304" y="704" xlink:href="#p" />
<use x="320" y="704" xlink:href="#p" />
<use x="384" y="704" xlink:href="#p" />
<use x="448" y="704" xlink:href="#p" />
<use x="464" y="704" xlink:href="#p" />
<use x="480" y="704" xlink:href="#p" />
<use x="496" y="704" xlink:href="#p" />
<use x="512" y="704" xlink:href="#p" />
<use x="528" y="704" xlink:href="#p" />
<use x="560" y="704" xlink:href="#p" />
<use x="576" y="704" xlink:href="#p" />
<use x="592" y="704" xlink:href="#p" />
<use x="608" y="704" xlink:href="#p" />
<use x="688" y="704" xlink:href="#p" />
<use x="704" y="704" xlink:href="#p" />
<use x="32" y="720" xlink:href="#p" />
<use x="128" y="720" xlink:href="#p" />
<use x="160" y="720" xlink:href="#p" />
<use x="224" y="720" xlink:href="#p" />
<use x="240" y="720" xlink:href="#p" />
<use x="288" y="720" xlink:href="#p" />
<use x="304" y="720" xlink:href="#p" />
<use x="368" y="720" xlink:href="#p" />
<use x="400" y="720" xlink:href="#p" />
<use x="416" y="720" xlink:href="#p" />
<use x="448" y="720" xlink:href="#p" />
<use x="464" y="720" xlink:href="#p" />
<use x="480" y="720" xlink:href="#p" />
<use x="496" y="720" xlink:href="#p" />
<use x="544" y="720" xlink:href="#p" />
<use x="576" y="720" xlink:href="#p" />
<use x="592" y="720" xlink:href="#p" />
<use x="624" y="720" xlink:href="#p" />
<use x="656" y="720" xlink:href="#p" />
<use x="688" y="720" xlink:href="#p" />
<use x="704" y="720" xlink:href="#p" />
<use x="32" y="736" xlink:href="#p" />
<use x="48" y="736" xlink:href="#p" />
<use x="64" y="736" xlink:href="#p" />
<use x="80" y="736" xlink:href="#p" />
<use x="96" y="736" xlink:href="#p" />
<use x="112" y="736" xlink:href="#p" />
<use x="128" y="736" xlink:href="#p" />
<use x="192" y="736" xlink:href="#p" />
<use x="208" y="736" xlink:href="#p" />
<use x="240" y="736" xlink:href="#p" />
<use x="256" y="736" xlink:href="#p" />
<use x="320" y="736" xlink:href="#p" />
<use x="352" y="736" xlink:href="#p" />
<use x="368" y="736" xlink:href="#p" />
<use x="384" y="736" xlink:href="#p" />
<use x="400" y="736" xlink:href="#p" />
<use x="448" y="736" xlink:href="#p" />
<use x="528" y="736" xlink:href="#p" />
<use x="560" y="736" xlink:href="#p" />
<use x="576" y="736" xlink:href="#p" />
<use x="592" y="736" xlink:href="#p" />
<use x="608" y="736" xlink:href="#p" />
<use x="624" y="736" xlink:href="#p" />
<use x="640" y="736" xlink:href="#p" />
<use x="688" y="736" xlink:href="#p" />
<use x="720" y="736" xlink:href="#p" />
</g>
</svg>